<?xml version="1.0" encoding="UTF-8"?>
<svg id="Ebene_1" data-name="Ebene 1" xmlns="http://www.w3.org/2000/svg" viewBox="0 0 54.5 29.98">
  <path d="M35.51,0v4.97h-5.07c.02-1.13-.03-2.26.03-3.38.11-.7.62-1.29,1.3-1.5l.38-.09h3.37ZM43.43,7.98c-.14-.18-.56-.49-.79-.49h-4.61v17.51h5.07v-8.72l6.07,8.33c.25.24.54.36.89.39.73.05,1.87.05,2.6,0,.95-.06,1.72-.73,1.84-1.69v-14.16c-.03-.77-.93-1.66-1.69-1.66h-3.36v8.74l-6.02-8.25ZM13.32,21.69c4.43,5.45,13.37,3.88,15.47-2.85,1.88-6.03-3-11.65-9.15-11.3-6.97.4-10.78,8.64-6.32,14.14ZM23.86,17.59c-1.07,2.81-4.94,3.29-6.69.85s-.04-5.75,2.91-5.92c2.69-.15,4.75,2.51,3.77,5.07ZM6.71,7.52c-.73,0-1.62.93-1.63,1.66v11.04c-.04.51-.13,1.01-.31,1.49-.73,1.98-2.66,3.29-4.77,3.29v4.97c3.28.02,6.43-1.6,8.32-4.26,1.06-1.5,1.69-3.27,1.8-5.12V7.52h-3.41ZM30.44,7.52v17.45l.04.04h5.04V7.52h-5.07Z"/>
</svg>