<?xml version="1.0" encoding="UTF-8"?>
<svg id="Ebene_1" xmlns="http://www.w3.org/2000/svg" version="1.1" viewBox="0 0 379.8 102.2">
  <!-- Generator: Adobe Illustrator 29.4.0, SVG Export Plug-In . SVG Version: 2.1.0 Build 152)  -->
  <defs>
    <style>
      .st0 {
        fill: #e50914;
      }

      .st1 {
        isolation: isolate;
      }
    </style>
  </defs>
  <g class="st1">
    <g class="st1">
      <path class="st0" d="M18,69.1v-3.3h14v3.3c0,4.5,2.3,7.8,7.6,7.8s7.7-2.9,7.7-7.8-2.5-7.9-12.6-12.8c-12.7-6.1-16.4-12.5-16.4-22.9s7.6-20.2,21.9-20.2,21.4,8.1,21.4,20.4v2.1h-14v-2c0-4.7-2.1-8-7.3-8s-7.2,3-7.2,7.5,2.9,7.4,12.8,12.2c13,6.2,16.2,12.8,16.2,23.4s-7.8,20.6-22.3,20.6-21.8-8.1-21.8-20.3Z"/>
      <path class="st0" d="M71.3,14.3h40.3v12.9h-25.5v17.1h20.3v12.9h-20.3v18.2h25.5v12.9h-40.3V14.3Z"/>
      <path class="st0" d="M120.7,14.3h18.3l14.8,42.9V14.3h13.2v74.1h-14.9l-18.2-52.7v52.7h-13.2V14.3Z"/>
      <path class="st0" d="M178.7,14.3h39.1v12.9h-24.3v17.7h19v12.9h-19v30.6h-14.8V14.3Z"/>
      <path class="st0" d="M226.1,14.3h14.8v61.2h24.3v12.9h-39.1V14.3Z"/>
      <path class="st0" d="M273.5,14.3h14.8v74.1h-14.8V14.3Z"/>
      <path class="st0" d="M313.3,50.4l-16.4-36.1h16l9.5,23.3,9.8-23.3h14.3l-16.4,36.1,17.1,38h-15.9l-10.4-25.3-10.6,25.3h-14.3l17.1-38Z"/>
    </g>
  </g>
</svg>