<?xml version="1.0" encoding="UTF-8"?>
<svg id="Ebene_1" data-name="Ebene 1" xmlns="http://www.w3.org/2000/svg" viewBox="0 0 116.1 33.25">
  <g id="Hshu4E">
    <path d="M71.35,7.97c.19.03.09-.13.08-.24-.18-1.35-.41-2.56.08-3.89,1.55-4.2,8.32-3.93,9.27.54l2.07,11.1,5.67-10.89c1.51-4.01,7.14-5.41,9.35-1.27,1.29,3.94,2.05,8.06,3.2,12.05.21-.24.34-.55.48-.83,1.6-3.31,3.02-7.07,4.77-10.26,3.35-6.08,11.83-3.54,9.33,3.33-3.98,6.93-7.06,14.84-11.13,21.66-2.23,3.75-7.67,4.59-9.56.14-1.43-3.35-1.91-8.3-2.99-11.94-.04-.14.07-.3-.18-.25l-6.79,12.38c-2.96,4.03-8.6,4.02-9.98-1.4-.72-2.81-.87-5.89-1.66-8.69-.95,5.41-4.81,10.01-9.8,12.21-6.95,3.07-16.17,1.53-20.78-4.77-2-2.74-2.89-5.93-3.13-9.29l-4.4,10.74c-1.13,3.49-6.46,5.49-9.18,2.82-2.09-2.05-3.58-10.58-4.66-13.75-.05-.14.04-.29-.19-.24l-5.67,11.43c-1.48,2.6-3.04,3.96-6.22,3.7s-4.02-3.04-4.69-5.66C2.91,19.84,1.7,12.83.02,5.96-.49-.07,7.99-.98,9.65,4.29l2.7,11.95,5.25-11.91c.86-1.65,2.23-3.21,4.2-3.43,3.11-.34,4.56.82,5.47,3.67,1.19,3.73,1.86,7.8,2.98,11.56.17-.03.24-.37.3-.52,1.36-3.36,2.49-6.83,3.87-10.18.86-2.1,1.85-4.19,4.42-4.52,3.5-.44,5.76,1.39,5.42,4.98,6.8-8.44,22-7.9,27.1,2.07ZM55.51,9.2c-7.91.95-8.6,14.23.29,14.89,11.07.82,10.82-16.22-.29-14.89Z"/>
  </g>
</svg>